<svg viewBox="0 0 248 48" xmlns="http://www.w3.org/2000/svg" fill="none">
  <path d="M7 11 L41 11 L24 39 Z" stroke="#16202B" stroke-width="2.6" stroke-linejoin="round"/>
  <circle cx="24" cy="20.5" r="3.2" fill="#3E9B82"/>
  <line x1="24" y1="39" x2="24" y2="45" stroke="#D2532F" stroke-width="2.2" stroke-linecap="round"/>
  <path d="M71.256 32L66.264 32L60.336 15.512L64.944 15.512L67.968 24.824Q68.064 25.112 68.208 25.580Q68.352 26.048 68.508 26.540Q68.664 27.032 68.760 27.416L68.928 27.416Q69.048 27.056 69.180 26.588Q69.312 26.120 69.456 25.652Q69.600 25.184 69.696 24.848L72.720 15.512L77.160 15.512 M92.520 32L78.744 32L78.744 15.512L92.352 15.512L92.352 18.872L83.040 18.872L83.040 21.968L91.176 21.968L91.176 25.256L83.040 25.256L83.040 28.640L92.520 28.640 M107.544 32L94.872 32L94.872 15.512L99.168 15.512L99.168 28.472L107.544 28.472 M113.520 32L109.224 32L109.224 15.512L113.520 15.512L113.520 22.832L120.048 15.512L125.376 15.512L119.232 22.256L125.496 32L120.408 32L116.256 25.184L113.520 27.704 M131.400 32L127.104 32L127.104 15.512L131.400 15.512 M138.384 32L134.400 32L134.400 15.512L138.216 15.512L144.216 23.168Q144.384 23.360 144.660 23.720Q144.936 24.080 145.200 24.452Q145.464 24.824 145.584 25.040L145.704 25.016Q145.704 24.488 145.704 23.996Q145.704 23.504 145.704 23.168L145.704 15.512L149.688 15.512L149.688 32L145.896 32L139.536 23.936Q139.224 23.552 138.948 23.144Q138.672 22.736 138.504 22.472L138.384 22.496Q138.384 22.880 138.384 23.276Q138.384 23.672 138.384 23.936" fill="#16202B"/>
  <path d="M64.787 46L62.270 46L62.270 39.483L64.787 39.483Q65.794 39.483 66.507 39.830Q67.219 40.176 67.604 40.894Q67.989 41.611 67.989 42.742Q67.989 43.862 67.604 44.584Q67.219 45.306 66.507 45.653Q65.794 46 64.787 46M63.334 40.395L63.334 45.088L64.778 45.088Q65.281 45.088 65.675 44.955Q66.070 44.822 66.340 44.547Q66.611 44.271 66.749 43.848Q66.886 43.425 66.886 42.846L66.886 42.647Q66.886 42.057 66.749 41.635Q66.611 41.212 66.340 40.937Q66.070 40.661 65.675 40.528Q65.281 40.395 64.778 40.395 M72.794 46L71.701 46L74.257 39.483L75.615 39.483L78.180 46L77.040 46L76.461 44.489L73.373 44.489L72.794 46M74.438 41.678L73.715 43.587L76.109 43.587L75.378 41.678Q75.349 41.592 75.292 41.440Q75.235 41.288 75.174 41.108Q75.112 40.927 75.050 40.742Q74.988 40.556 74.941 40.404L74.884 40.404Q74.827 40.585 74.741 40.832Q74.656 41.079 74.575 41.307Q74.494 41.535 74.438 41.678 M84.876 46L83.812 46L83.812 40.395L81.656 40.395L81.656 39.483L87.052 39.483L87.052 40.395L84.876 40.395 M91.610 46L90.518 46L93.073 39.483L94.432 39.483L96.997 46L95.857 46L95.277 44.489L92.190 44.489L91.610 46M93.254 41.678L92.532 43.587L94.926 43.587L94.194 41.678Q94.166 41.592 94.109 41.440Q94.052 41.288 93.990 41.108Q93.928 40.927 93.867 40.742Q93.805 40.556 93.757 40.404L93.700 40.404Q93.643 40.585 93.558 40.832Q93.472 41.079 93.392 41.307Q93.311 41.535 93.254 41.678  M108.593 46.114Q108.061 46.114 107.567 46.005Q107.073 45.895 106.693 45.653Q106.313 45.411 106.095 45.036Q105.876 44.660 105.876 44.138Q105.876 44.081 105.881 44.029Q105.886 43.977 105.886 43.938L106.950 43.938Q106.950 43.967 106.945 44.024Q106.940 44.081 106.940 44.119Q106.940 44.471 107.149 44.718Q107.358 44.965 107.734 45.088Q108.109 45.212 108.593 45.212Q108.859 45.212 109.106 45.178Q109.353 45.145 109.558 45.074Q109.762 45.002 109.914 44.893Q110.066 44.784 110.151 44.632Q110.237 44.480 110.237 44.281Q110.237 43.977 110.061 43.777Q109.885 43.578 109.586 43.444Q109.287 43.312 108.912 43.207Q108.536 43.102 108.137 42.998Q107.738 42.894 107.363 42.751Q106.988 42.608 106.689 42.404Q106.389 42.200 106.214 41.891Q106.038 41.583 106.038 41.136Q106.038 40.709 106.218 40.376Q106.399 40.044 106.741 39.820Q107.083 39.597 107.558 39.483Q108.033 39.369 108.631 39.369Q109.144 39.369 109.600 39.478Q110.056 39.587 110.398 39.816Q110.740 40.044 110.935 40.395Q111.130 40.746 111.130 41.231L111.130 41.345L110.075 41.345L110.075 41.221Q110.075 40.918 109.895 40.709Q109.714 40.499 109.391 40.386Q109.068 40.272 108.641 40.272Q108.137 40.272 107.795 40.371Q107.453 40.471 107.278 40.647Q107.102 40.822 107.102 41.069Q107.102 41.345 107.282 41.521Q107.463 41.697 107.762 41.820Q108.061 41.944 108.437 42.043Q108.812 42.143 109.206 42.252Q109.600 42.361 109.976 42.504Q110.351 42.647 110.650 42.855Q110.949 43.065 111.130 43.373Q111.310 43.682 111.310 44.129Q111.310 44.831 110.959 45.273Q110.607 45.715 109.995 45.914Q109.382 46.114 108.593 46.114 M118.405 46L117.341 46L117.341 40.395L115.185 40.395L115.185 39.483L120.581 39.483L120.581 40.395L118.405 40.395 M127.429 46.114Q126.593 46.114 125.985 45.843Q125.377 45.572 125.054 45.002Q124.731 44.432 124.731 43.559L124.731 39.483L125.795 39.483L125.795 43.587Q125.795 44.395 126.222 44.803Q126.650 45.212 127.429 45.212Q128.217 45.212 128.659 44.803Q129.101 44.395 129.101 43.587L129.101 39.483L130.165 39.483L130.165 43.559Q130.165 44.432 129.837 45.002Q129.509 45.572 128.897 45.843Q128.284 46.114 127.429 46.114 M137.393 46L134.875 46L134.875 39.483L137.393 39.483Q138.400 39.483 139.112 39.830Q139.825 40.176 140.210 40.894Q140.594 41.611 140.594 42.742Q140.594 43.862 140.210 44.584Q139.825 45.306 139.112 45.653Q138.400 46 137.393 46M135.939 40.395L135.939 45.088L137.383 45.088Q137.887 45.088 138.281 44.955Q138.675 44.822 138.946 44.547Q139.217 44.271 139.355 43.848Q139.492 43.425 139.492 42.846L139.492 42.647Q139.492 42.057 139.355 41.635Q139.217 41.212 138.946 40.937Q138.675 40.661 138.281 40.528Q137.887 40.395 137.383 40.395 M146.084 46L145.020 46L145.020 39.483L146.084 39.483 M153.777 46.114Q152.770 46.114 152.034 45.743Q151.298 45.373 150.904 44.623Q150.509 43.872 150.509 42.742Q150.509 41.602 150.904 40.856Q151.298 40.110 152.034 39.739Q152.770 39.369 153.777 39.369Q154.803 39.369 155.535 39.739Q156.266 40.110 156.661 40.856Q157.055 41.602 157.055 42.742Q157.055 43.872 156.661 44.623Q156.266 45.373 155.535 45.743Q154.803 46.114 153.777 46.114M153.777 45.212Q154.300 45.212 154.704 45.069Q155.107 44.926 155.388 44.632Q155.668 44.337 155.815 43.891Q155.962 43.444 155.962 42.855L155.962 42.647Q155.962 42.038 155.815 41.592Q155.668 41.145 155.388 40.851Q155.107 40.556 154.704 40.414Q154.300 40.272 153.777 40.272Q153.264 40.272 152.861 40.414Q152.457 40.556 152.177 40.851Q151.896 41.145 151.754 41.592Q151.611 42.038 151.611 42.647L151.611 42.855Q151.611 43.444 151.754 43.891Q151.896 44.337 152.177 44.632Q152.457 44.926 152.861 45.069Q153.264 45.212 153.777 45.212 M163.893 46.114Q163.361 46.114 162.867 46.005Q162.373 45.895 161.993 45.653Q161.613 45.411 161.395 45.036Q161.176 44.660 161.176 44.138Q161.176 44.081 161.181 44.029Q161.186 43.977 161.186 43.938L162.250 43.938Q162.250 43.967 162.245 44.024Q162.240 44.081 162.240 44.119Q162.240 44.471 162.449 44.718Q162.658 44.965 163.034 45.088Q163.409 45.212 163.893 45.212Q164.159 45.212 164.406 45.178Q164.653 45.145 164.858 45.074Q165.062 45.002 165.214 44.893Q165.366 44.784 165.451 44.632Q165.537 44.480 165.537 44.281Q165.537 43.977 165.361 43.777Q165.185 43.578 164.886 43.444Q164.587 43.312 164.212 43.207Q163.836 43.102 163.437 42.998Q163.038 42.894 162.663 42.751Q162.288 42.608 161.989 42.404Q161.689 42.200 161.514 41.891Q161.338 41.583 161.338 41.136Q161.338 40.709 161.518 40.376Q161.699 40.044 162.041 39.820Q162.383 39.597 162.858 39.483Q163.333 39.369 163.931 39.369Q164.444 39.369 164.900 39.478Q165.356 39.587 165.698 39.816Q166.040 40.044 166.235 40.395Q166.430 40.746 166.430 41.231L166.430 41.345L165.375 41.345L165.375 41.221Q165.375 40.918 165.195 40.709Q165.014 40.499 164.691 40.386Q164.368 40.272 163.941 40.272Q163.437 40.272 163.095 40.371Q162.753 40.471 162.578 40.647Q162.402 40.822 162.402 41.069Q162.402 41.345 162.582 41.521Q162.763 41.697 163.062 41.820Q163.361 41.944 163.737 42.043Q164.112 42.143 164.506 42.252Q164.900 42.361 165.276 42.504Q165.651 42.647 165.950 42.855Q166.249 43.065 166.430 43.373Q166.610 43.682 166.610 44.129Q166.610 44.831 166.259 45.273Q165.907 45.715 165.295 45.914Q164.682 46.114 163.893 46.114" fill="#6B6F63"/>
</svg>
